<svg width="17" height="30" viewBox="0 0 17 30" fill="none" xmlns="http://www.w3.org/2000/svg">
<path d="M13.1575 23.9843H10.0554V22.9345H12.6326V11.4441C12.6326 9.98142 11.8522 8.6298 10.5854 7.89847C9.31888 7.16714 7.75796 7.16714 6.49116 7.89847C5.22461 8.6298 4.44403 9.98148 4.44403 11.4441V22.9345H6.77474V23.9843H3.91396C3.62409 23.9843 3.38905 23.7493 3.38905 23.4594V11.4441C3.38905 9.60649 4.36952 7.90831 5.9611 6.98921C7.55268 6.07041 9.51361 6.07041 11.1052 6.98921C12.6968 7.90825 13.6772 9.60649 13.6772 11.4441V23.4594C13.6772 23.7472 13.4455 23.9815 13.1575 23.9843H13.1575Z" fill="white"/>
<path d="M3.38881 23.2231H4.43862V26.2938H3.38881V23.2231Z" fill="white"/>
<path d="M8.53292 29.6269C8.04621 29.6255 7.57963 29.4315 7.23541 29.0873C6.89117 28.743 6.69715 28.2764 6.69574 27.7897V18.4572C6.69574 17.8008 7.04583 17.1944 7.6143 16.8661C8.18279 16.538 8.88295 16.538 9.45147 16.8661C10.02 17.1944 10.37 17.8008 10.37 18.4572V27.7897C10.3686 28.2765 10.1746 28.743 9.83036 29.0873C9.48612 29.4315 9.01954 29.6255 8.53285 29.6269H8.53292ZM8.53292 17.6698C8.098 17.6698 7.74556 18.0223 7.74556 18.4572V27.7897C7.74556 28.2247 8.098 28.5771 8.53292 28.5771C8.96785 28.5771 9.32028 28.2247 9.32028 27.7897V18.4572C9.31161 18.0284 8.96175 17.6856 8.53292 17.6856V17.6698Z" fill="white"/>
<path d="M15.0052 19.2074H13.0736V17.344H14.9946C15.2119 17.344 15.4202 17.4302 15.5737 17.5837C15.7274 17.7374 15.8136 17.9457 15.8136 18.1627V18.3886C15.8136 18.8367 15.4535 19.2015 15.0051 19.2074H15.0052Z" fill="white"/>
<path d="M3.91376 27.2232H2.51763C2.06536 27.2232 1.69865 26.8564 1.69865 26.4042V26.1785C1.69865 25.7263 2.06539 25.3598 2.51763 25.3598H3.91376C4.05296 25.3598 4.18653 25.4151 4.28495 25.5135C4.38337 25.6119 4.43867 25.7455 4.43867 25.8847V26.6983C4.43867 26.8375 4.38337 26.971 4.28495 27.0695C4.18653 27.1679 4.05296 27.2232 3.91376 27.2232V27.2232Z" fill="white"/>
<path d="M6.10277 3.17688H1.90351C1.76127 3.17782 1.62489 3.12088 1.52553 3.01941L0.795818 2.2951C0.637644 2.08725 0.656391 1.7948 0.839639 1.60876C1.02312 1.4227 1.31534 1.39973 1.52556 1.5551L2.0978 2.12734H6.09226V2.12711C6.38212 2.12711 6.61716 2.36215 6.61716 2.65202C6.61716 2.94212 6.38212 3.17692 6.09226 3.17692L6.10277 3.17688Z" fill="white"/>
<path d="M14.8006 3.17689H10.6014C10.3113 3.17689 10.0764 2.94209 10.0764 2.65199C10.0764 2.36212 10.3113 2.12708 10.6014 2.12708H14.5958L15.1732 1.55507C15.2683 1.44399 15.4054 1.37768 15.5517 1.37182C15.6979 1.36619 15.8397 1.42196 15.943 1.52531C16.0466 1.62865 16.1021 1.77065 16.0965 1.91664C16.0909 2.06286 16.0243 2.19995 15.9132 2.29509L15.1732 3.0194C15.075 3.1197 14.9407 3.17641 14.8006 3.17687V3.17689Z" fill="white"/>
<path d="M8.53292 6.70977C8.24305 6.70977 8.00802 6.47473 8.00802 6.18486V4.77793C8.00802 4.48806 8.24305 4.25302 8.53292 4.25302C8.82279 4.25302 9.05783 4.48806 9.05783 4.77793V6.17946C9.05924 6.31959 9.00464 6.45457 8.90599 6.55416C8.80733 6.65376 8.67306 6.70976 8.53292 6.70976V6.70977Z" fill="white"/>
<path d="M8.47532 5.04567C7.87099 5.04567 7.29173 4.80571 6.8643 4.37828C6.43711 3.95109 6.19716 3.37184 6.19716 2.76745C6.19716 2.16336 6.43712 1.58386 6.8643 1.15661C7.29173 0.729423 7.87099 0.489471 8.47532 0.489471C9.07941 0.489471 9.65891 0.729429 10.0862 1.15661C10.5134 1.5838 10.7533 2.1633 10.7533 2.76745C10.7533 3.37178 10.5133 3.95104 10.0862 4.37828C9.65896 4.80571 9.07947 5.04567 8.47532 5.04567ZM8.47532 1.5445C8.14936 1.5445 7.83697 1.67385 7.60667 1.90421C7.37637 2.13456 7.24697 2.44693 7.24697 2.77285C7.24697 3.09858 7.37632 3.41096 7.60667 3.64132C7.83703 3.87168 8.14939 4.00102 8.47532 4.00102C8.80104 4.00102 9.11343 3.87167 9.34378 3.64132C9.57414 3.41097 9.70349 3.0986 9.70349 2.77285C9.70349 2.4469 9.57414 2.13451 9.34378 1.90421C9.11343 1.67391 8.80107 1.5445 8.47532 1.5445Z" fill="white"/>
</svg>
