<svg width="53" height="29" viewBox="0 0 53 29" fill="none" xmlns="http://www.w3.org/2000/svg">
<path d="M43.8386 11.43C42.7342 11.4358 41.6819 11.6597 40.7165 12.0553L40.5572 12.1205L40.4733 11.9703L39.1774 9.65092L39.0453 9.41448L39.3116 9.36517L41.0816 9.03748L41.0817 9.03747C41.3199 8.99342 41.5277 8.84957 41.6532 8.64261C41.7792 8.43484 41.8096 8.18416 41.7378 7.95332L41.7377 7.95308L40.4507 3.79985L43.8386 11.43ZM43.8386 11.43H43.8826C48.5035 11.43 52.2637 15.1891 52.2637 19.8099C52.2637 24.4308 48.5034 28.191 43.8826 28.191C40.4014 28.191 37.4104 26.0559 36.1463 23.0264L36.0965 22.9069H35.967H24.2562C24.0931 22.9069 23.9318 22.8589 23.7932 22.7691L17.5646 18.7148L17.2214 18.4915L17.2655 18.8985C17.298 19.199 17.3174 19.5025 17.3174 19.8093C17.3174 24.4302 13.5581 28.1904 8.93746 28.1904C4.31679 28.1904 0.557504 24.4302 0.557504 19.8093C0.557504 17.1496 1.80669 14.7802 3.74599 13.2436L3.94161 13.0886L3.74332 12.937C3.53468 12.7775 3.39962 12.545 3.39962 12.2768C3.39962 8.84736 6.1901 6.05688 9.61951 6.05688H14.5615C16.768 6.05688 18.9255 6.85657 20.6063 8.27146L20.721 8.36805L20.8435 8.28148C21.8799 7.54891 23.8407 6.23567 26.0313 5.12898C28.23 4.01815 30.6267 3.13308 32.5455 3.22124L33.0025 3.24224L32.7002 2.89883L31.9879 2.0898L31.9298 2.02392H31.8421H28.0611C27.5925 2.02392 27.2136 1.64503 27.2136 1.1765C27.2136 0.707965 27.5925 0.32908 28.0611 0.32908L32.3129 0.328527C32.5557 0.328527 32.788 0.433624 32.9498 0.616081C32.9499 0.616136 32.9499 0.616191 32.95 0.616247L35.7358 3.78053L35.8078 3.86234L35.9151 3.84349L39.4934 3.21536C39.4935 3.21533 39.4937 3.2153 39.4939 3.21527C39.9131 3.1443 40.3242 3.39256 40.4507 3.79973L43.8386 11.43ZM44.4613 19.1079L43.4645 17.3241L43.32 17.0655L43.6147 17.036C43.6394 17.0336 43.6616 17.0305 43.6872 17.027C43.7011 17.0251 43.7159 17.023 43.7327 17.0209C43.7765 17.0152 43.8277 17.0097 43.8827 17.0097C45.4279 17.0097 46.6837 18.2659 46.6837 19.8095C46.6837 21.3546 45.4274 22.6104 43.8827 22.6104C42.3387 22.6104 41.0824 21.3541 41.0824 19.8095C41.0824 19.173 41.3037 18.5936 41.659 18.1254L41.8385 17.8889L41.9833 18.1481L43.1427 20.2226C43.2982 20.5008 43.5862 20.6574 43.8838 20.6574C44.0233 20.6574 44.1646 20.623 44.2958 20.55L44.4613 19.1079ZM44.4613 19.1079H44.4611L44.6227 19.3969L44.6228 19.3969C44.8509 19.8048 44.7047 20.3213 44.2961 20.5499L44.4613 19.1079ZM8.93745 26.4953C5.25143 26.4953 2.25281 23.4961 2.25281 19.8095C2.25281 16.1236 5.25204 13.1249 8.93745 13.1249C12.6234 13.1249 15.6221 16.1241 15.6221 19.8095L8.93745 26.4953ZM8.93745 26.4953C12.6234 26.4953 15.6226 23.4961 15.6221 19.8095L8.93745 26.4953ZM39.1031 5.17904L39.0525 5.01565L38.884 5.04522L37.077 5.36236L36.8076 5.40965L36.941 5.64844L38.1048 7.73127L38.1727 7.85285L38.3097 7.82753L39.6216 7.58494L39.8365 7.5452L39.7718 7.33642L39.1031 5.17904ZM21.5807 9.83722L21.4997 9.89534V9.9951L21.4997 11.4721L21.4997 11.6281L21.652 11.6618C23.7443 12.1246 26.4431 12.1307 28.848 11.7245C30.0515 11.5213 31.1877 11.2137 32.1419 10.8045C33.0932 10.3965 33.8794 9.88065 34.3639 9.25143L34.3639 9.25138C34.593 8.95363 34.8366 8.5402 34.8727 7.96347C34.9088 7.38842 34.7372 6.67772 34.1895 5.78561C33.91 5.32863 33.499 5.06558 32.9268 4.9562L32.9264 4.95612C32.1579 4.81109 31.2168 4.94383 30.2151 5.23642C29.2093 5.53019 28.1225 5.99115 27.0537 6.52263C24.916 7.58567 22.8318 8.94034 21.5807 9.83722ZM14.5614 7.75282H9.61979V7.7528C7.49964 7.7528 5.71597 9.21779 5.22809 11.1889L5.16846 11.4299H5.41665H19.6101H19.8043V11.2356V9.9204V9.83483L19.7412 9.77708C18.3356 8.49112 16.4749 7.75282 14.5614 7.75282ZM35.4046 21.2118V21.0278L35.5969 20.9902C35.5414 20.6002 35.5038 20.2086 35.5038 19.8096C35.5038 17.0381 36.862 14.5828 38.944 13.0558L39.0825 12.9543L38.9987 12.8044L36.779 8.83171L36.5505 8.42277L36.4225 8.87341C36.2638 9.43244 35.9993 9.90632 35.7083 10.2847C34.8054 11.4576 33.2384 12.3164 31.3674 12.8811C29.5008 13.4446 27.3558 13.7079 25.3273 13.7079C23.558 13.7079 21.8964 13.5032 20.5829 13.1322L20.5571 13.1249H20.5302H14.5256H14.0029L14.3987 13.4663C15.1771 14.1376 15.8338 14.9447 16.3234 15.8553L16.3469 15.899L16.3885 15.9261L24.461 21.1803L24.5093 21.2118H24.5669H35.4046ZM37.1993 19.8095C37.1993 23.4311 40.0931 26.3894 43.6897 26.4925V26.4954H43.8839C47.5705 26.4954 50.5697 23.4961 50.5697 19.8096C50.5697 16.1241 47.5704 13.1249 43.8839 13.1249C43.08 13.1249 42.3224 13.2903 41.6143 13.5478L41.3998 13.6258L41.5111 13.8251L42.4047 15.4244L42.4804 15.5598L42.6292 15.516C43.0364 15.396 43.4509 15.3144 43.8839 15.3144C46.3629 15.3144 48.3802 17.3318 48.3802 19.8095C48.3802 22.2884 46.3628 24.3058 43.8839 24.3058C41.4062 24.3058 39.3888 22.289 39.3888 19.8095C39.3888 18.4898 39.9713 17.3119 40.8842 16.4872L40.9991 16.3834L40.9235 16.2483L40.0349 14.6584L39.9233 14.4587L39.7444 14.6013C38.2075 15.8255 37.1993 17.6917 37.1993 19.8095Z" fill="white" stroke="#469289" stroke-width="0.388499"/>
</svg>
