<svg width="38" height="29" viewBox="0 0 38 29" fill="none" xmlns="http://www.w3.org/2000/svg">
<path fill-rule="evenodd" clip-rule="evenodd" d="M30.6939 0.136192C30.9998 0.168729 31.2619 0.378475 31.3708 0.677992L34.5594 8.98585C36.1183 9.95645 37.1752 11.6919 37.1752 13.6613V17.4654C37.1752 19.2308 36.1331 20.831 34.6762 21.877V25.9848C34.6762 26.8096 34.1286 27.4045 33.5179 27.8075C32.9073 28.2107 32.1543 28.4547 31.3443 28.4547C30.3726 28.4547 29.5072 28.2214 28.8326 27.8205C28.1581 27.4199 27.5965 26.8095 27.5965 25.9848V22.96H9.68828V25.9979C9.758 26.3177 9.75975 26.6553 9.63628 26.9356C9.46575 27.3226 9.17147 27.6049 8.84231 27.8205C8.1843 28.2519 7.32821 28.4546 6.35642 28.4546C5.54646 28.4546 4.78067 28.2208 4.17009 27.8205C3.55945 27.4201 3.02495 26.8168 3.02495 25.9978V22.1277C1.70317 21.0946 0.52597 19.4013 0.52597 17.465V13.6609C0.52597 11.7017 1.57035 9.97228 3.11583 8.99825L5.9009 0.70304V0.70333C6.01595 0.358209 6.33085 0.128994 6.68179 0.13539H30.6155C30.6416 0.133937 30.6675 0.133937 30.6936 0.13539L30.6939 0.136192ZM30.0563 1.82692H7.24108L5.09365 8.24623C5.37138 8.20062 5.65084 8.16692 5.93961 8.16692H7.1891V7.88948C7.1891 7.13589 7.44067 6.40238 7.93105 5.81583C8.42143 5.22927 9.20204 4.78566 10.1047 4.78566C11.007 4.78566 11.7748 5.22926 12.2652 5.81583C12.7556 6.4024 13.0199 7.13589 13.0199 7.88948V8.16692H31.7611C32.0185 8.16692 32.2674 8.19655 32.5158 8.23286L30.0563 1.82692ZM10.1043 6.3309C9.75716 6.3309 9.48379 6.48139 9.24527 6.76667C9.00706 7.05223 8.85512 7.48045 8.85512 7.8895V8.16694H11.3541V7.8895C11.3541 7.48047 11.1891 7.05225 10.9506 6.76667C10.7118 6.48139 10.4515 6.3309 10.1043 6.3309H10.1043ZM31.7608 9.85767H5.93961C3.90343 9.85767 2.19152 11.5955 2.19152 13.6618V17.466C2.19152 18.7166 3.25069 20.2386 4.27387 20.953C4.95134 21.29 5.13232 21.2699 5.93961 21.2699H31.7608C32.1774 21.2699 32.8171 21.1224 32.8409 21.0982L32.8412 21.0979C32.9019 21.0343 32.9722 20.9809 33.0495 20.9396C34.4669 20.2203 35.5092 18.7338 35.5092 17.4657V13.6616C35.5092 11.5952 33.797 9.8574 31.7611 9.8574L31.7608 9.85767ZM33.0103 22.8553C32.492 23.0049 32.0147 22.961 31.7608 22.961H29.2619V25.9858C29.2619 25.9858 29.3249 26.1906 29.6912 26.4085C30.0578 26.6264 30.6499 26.8048 31.3442 26.8048C31.7838 26.8048 32.2672 26.6505 32.5937 26.4349C32.92 26.2194 33.0103 25.9858 33.0103 25.9858V22.8553ZM4.69027 22.8687V25.9992C4.69027 25.9992 4.76726 26.2345 5.09378 26.4483C5.42002 26.6621 5.91646 26.8181 6.35636 26.8181C7.05038 26.8181 7.63924 26.631 7.91813 26.4483C8.03782 26.3699 8.07587 26.3196 8.0872 26.3031V26.3028C8.04624 26.2063 8.02416 26.1032 8.02213 25.9986V22.9608H5.93977C5.50488 22.9608 5.10311 22.9433 4.69028 22.8684L4.69027 22.8687Z" fill="white"/>
<path fill-rule="evenodd" clip-rule="evenodd" d="M8.85521 11.9712C10.7844 11.9511 12.1647 13.5492 12.1871 15.3527C12.1711 17.4618 10.7612 19.1261 8.85521 19.1569C7.05055 19.1569 5.52337 17.4662 5.52337 15.3527C5.51697 13.4987 7.04706 11.9829 8.85521 11.9712ZM8.85521 13.6619C7.8977 13.6698 7.23067 14.1648 7.18947 15.3526C7.18947 16.6207 7.62902 17.4661 8.85521 17.4661C10.0957 17.4132 10.5209 16.4769 10.5209 15.3526C10.5209 14.4637 9.96143 13.6729 8.85521 13.6619Z" fill="white"/>
<path fill-rule="evenodd" clip-rule="evenodd" d="M28.8458 11.9712C30.8622 11.9712 32.148 13.6672 32.1777 15.3527C32.1777 17.4662 30.8346 19.1569 28.8458 19.1569C26.8347 19.179 25.5134 17.3488 25.514 15.3527C25.5108 13.5269 27.0604 11.9712 28.8458 11.9712ZM28.8458 13.6619C27.8003 13.6619 27.1801 14.5462 27.1801 15.3526C27.1801 16.4455 27.5546 17.4661 28.8458 17.4661C30.0462 17.4661 30.5116 16.3932 30.5116 15.3526C30.5116 14.7086 30.0967 13.6726 28.8458 13.6619Z" fill="white"/>
<path fill-rule="evenodd" clip-rule="evenodd" d="M23.8482 14.5072C24.071 14.504 24.286 14.5917 24.4446 14.7506C24.6032 14.9095 24.6924 15.1263 24.6924 15.3526C24.6924 15.5786 24.6032 15.7953 24.4446 15.9542C24.286 16.1131 24.071 16.2009 23.8482 16.1977H13.8529C13.6301 16.2008 13.4151 16.1131 13.2565 15.9542C13.0979 15.7953 13.0087 15.5786 13.0087 15.3526C13.0087 15.1263 13.0979 14.9096 13.2565 14.7506C13.4151 14.5917 13.6301 14.504 13.8529 14.5072H23.8482Z" fill="white"/>
</svg>
