<svg width="26" height="29" viewBox="0 0 26 29" fill="none" xmlns="http://www.w3.org/2000/svg">
<path d="M7.02973 20.8177C7.02973 21.4534 6.51438 21.9685 5.87898 21.9685C5.24333 21.9685 4.72823 21.4534 4.72823 20.8177C4.72823 20.1824 5.24331 19.667 5.87898 19.667C6.51432 19.667 7.02973 20.1823 7.02973 20.8177Z" fill="white" stroke="#469289" stroke-width="0.19425"/>
<path d="M20.9344 20.8177C20.9344 21.4534 20.4193 21.9685 19.7837 21.9685C19.1483 21.9685 18.6329 21.4534 18.6329 20.8177C18.6329 20.1824 19.1483 19.667 19.7837 19.667C20.4193 19.667 20.9344 20.1823 20.9344 20.8177Z" fill="white" stroke="#469289" stroke-width="0.19425"/>
<path d="M7.23843 16.0531H18.4242C18.8601 16.0531 19.2133 16.4065 19.2133 16.8422C19.2133 17.2778 18.8599 17.6312 18.4242 17.6312H7.23843C6.80278 17.6312 6.44938 17.2778 6.44938 16.8422C6.44938 16.4065 6.80277 16.0531 7.23843 16.0531Z" fill="white" stroke="#469289" stroke-width="0.19425"/>
<path d="M24.5969 16.0531L23.4015 16.0531H23.3418L23.3148 15.9997L21.2748 11.9545C20.7674 10.9484 19.7531 10.3237 18.6269 10.3237L7.03594 10.3234C5.90981 10.3234 4.89544 10.9478 4.38802 11.9542L4.38802 11.9542L2.34798 15.9994L2.32105 16.0528H2.26126H1.06568C0.63002 16.0528 0.276637 16.4062 0.276637 16.8419C0.276637 17.2775 0.630034 17.6309 1.06568 17.6309H2.80685C3.10464 17.6309 3.3771 17.4633 3.51143 17.1972L24.5969 16.0531ZM24.5969 16.0531C25.0328 16.0531 25.3853 16.4064 25.3851 16.8418V16.8419C25.3851 17.2775 25.0317 17.6309 24.596 17.6309H22.8548C22.5573 17.6309 22.2849 17.4636 22.1502 17.1971L19.8644 12.6645C19.6273 12.1942 19.153 11.9014 18.6263 11.9014H7.03539C6.50873 11.9014 6.03444 12.1939 5.79725 12.6645C5.79725 12.6645 5.79724 12.6646 5.79724 12.6646L3.51144 17.1971L24.5969 16.0531Z" fill="white" stroke="#469289" stroke-width="0.19425"/>
<path d="M2.73339 6.24857H2.92463L2.82985 6.34468C3.30519 6.79581 3.92125 7.04232 4.5758 7.04232C5.26202 7.04232 5.90594 6.77136 6.3901 6.27743L2.73339 6.24857ZM2.73339 6.24857C1.92328 5.39586 1.78325 4.10444 2.39685 3.09175C2.39686 3.09174 2.39686 3.09173 2.39687 3.09172L3.90095 0.611513L3.901 0.611419C4.0438 0.37535 4.29941 0.23141 4.5755 0.23141C4.85163 0.23141 5.10759 0.375382 5.25069 0.611223L6.75476 3.09174C7.37508 4.11538 7.22471 5.42516 6.39012 6.2774L2.73339 6.24857ZM3.74593 3.91028L3.65648 4.05777H3.67226C3.52125 4.43345 3.60123 4.87986 3.88849 5.17289C4.25795 5.55031 4.89236 5.55017 5.26265 5.17299L5.26277 5.17287C5.58803 4.84041 5.64751 4.31042 5.40499 3.91031L5.40498 3.91028L4.6585 2.67942L4.57545 2.54249L4.49241 2.67942L3.74593 3.91028Z" fill="white" stroke="#469289" stroke-width="0.19425"/>
<path d="M14.7148 6.3457L14.6454 6.27774C15.48 5.42551 15.6304 4.11571 15.01 3.09173L13.506 0.611296C13.506 0.611279 13.506 0.611263 13.506 0.611247C13.3625 0.375338 13.1065 0.23141 12.8308 0.23141C12.555 0.23141 12.2991 0.375366 12.1563 0.611419L12.1562 0.611521L10.6518 3.09175C10.6518 3.09175 10.6518 3.09176 10.6518 3.09176C10.0382 4.10381 10.1782 5.39584 10.9887 6.24857H11.0452V6.30562C11.5257 6.78156 12.1582 7.04232 12.8314 7.04232C13.517 7.04232 14.1609 6.77135 14.6454 6.27767L14.7148 6.3457ZM14.7148 6.3457C15.5805 5.46166 15.7363 4.10316 15.0931 3.0414L14.7148 6.3457ZM11.9276 4.05777C11.7766 4.43355 11.8572 4.87999 12.1445 5.17294L12.1445 5.17295C12.5138 5.54956 13.1475 5.55061 13.518 5.17295L13.518 5.1729C13.8437 4.84039 13.9028 4.31037 13.6603 3.91031L13.6603 3.91028L12.9138 2.67942L12.8307 2.54249L12.7477 2.67942L12.0012 3.91028L11.9118 4.05777H11.9276Z" fill="white" stroke="#469289" stroke-width="0.19425"/>
<path d="M20.4694 5.2795L20.3999 5.34738C20.7694 5.72551 21.4039 5.72537 21.7742 5.3475C22.0999 5.01528 22.159 4.48555 21.9165 4.08549L21.9165 4.08547L21.17 2.85461L21.087 2.71768L21.0039 2.85461L20.2574 4.08547L20.168 4.23296H20.1837C20.0325 4.60859 20.1128 5.05453 20.4001 5.3475L20.4694 5.2795ZM20.4694 5.2795C20.8007 5.61859 21.3726 5.61859 21.7049 5.2795L20.2893 4.23296C20.1317 4.58068 20.2005 5.0052 20.4694 5.2795ZM19.2974 6.47712L19.2733 6.45259C18.4381 5.60038 18.288 4.29061 18.9087 3.26695C18.9087 3.26695 18.9087 3.26694 18.9087 3.26694L20.4128 0.786389L20.4128 0.7863C20.5556 0.550231 20.8112 0.406291 21.0873 0.406291C21.363 0.406291 21.6187 0.550467 21.7619 0.786413L23.266 3.26695L23.266 3.26696C23.8869 4.29061 23.7365 5.60066 22.901 6.45256L22.901 6.45259C22.4171 6.94624 21.7732 7.21751 21.087 7.21751C20.4122 7.21751 19.7783 6.95523 19.2974 6.47712Z" fill="white" stroke="#469289" stroke-width="0.19425"/>
<path d="M2.6487 25.2529V25.2003L2.60466 25.1715C1.91085 24.7187 1.45092 23.9372 1.45092 23.0493V21.2014C1.45092 20.7658 1.80431 20.4124 2.23996 20.4124C2.67561 20.4124 3.02901 20.7658 3.02901 21.2014V23.0493C3.02901 23.5753 3.45556 24.0035 3.98113 24.0035H21.6817C22.2073 24.0035 22.6338 23.5753 22.6338 23.0493V21.2014C22.6338 20.7658 22.9872 20.4124 23.4228 20.4124C23.8587 20.4124 24.2119 20.7657 24.2122 21.2018V23.0496C24.2122 23.9376 23.7522 24.7193 23.0582 25.1718L23.0141 25.2006V25.2532V26.7369C23.0141 27.6526 22.2693 28.3976 21.3546 28.3976H20.1482C19.2335 28.3976 18.4887 27.6526 18.4887 26.7369V25.6795V25.5823H18.3916H7.27151H7.17438V25.6795V26.7369C7.17438 27.6526 6.42991 28.3976 5.51459 28.3976H4.30849C3.39347 28.3976 2.6487 27.6526 2.6487 26.7369V25.2529ZM5.51538 26.8191L5.61208 26.8179L5.61131 26.7212L5.603 25.6783L5.60224 25.582H5.50588H4.32384H4.22672V25.6791V26.7365V26.8348L4.32503 26.8336L5.51538 26.8191ZM20.0664 26.7365V26.8348L20.1647 26.8336L21.355 26.8191L21.4518 26.818L21.451 26.7212L21.4423 25.6783L21.4415 25.582H21.3452H20.1635H20.0664V25.6791V26.7365Z" fill="white" stroke="#469289" stroke-width="0.19425"/>
</svg>
